<svg width="369" height="336" viewBox="0 0 369 336" fill="none" xmlns="http://www.w3.org/2000/svg">
<path d="M55.4363 33.7867C46.5311 -15.6676 16.5371 0.120565 2.65331 14.1965L0.500792 314.863C101.757 325.807 313.109 344.405 348.473 331.245C383.836 318.085 364.072 299.194 349.77 291.394C364.687 249.903 339.742 252.118 325.405 258.412C333.279 204.046 295.223 204.408 275.21 211.385C292.842 180.285 269.634 169.943 255.826 168.66C268.325 107.669 232.404 119.726 212.881 133.378C218.088 88.0087 184.523 79.7764 167.09 81.3314C179.693 27.568 147.293 29.5586 129.518 37.2744C104.893 -19.0019 69.87 11.5008 55.4363 33.7867Z" fill="#E7E7E7" fill-opacity="0.84"/>
</svg>
