<svg width="508" height="418" viewBox="0 0 508 418" fill="none" xmlns="http://www.w3.org/2000/svg">
<path d="M456.936 354.832C531.671 364.815 507.773 398.865 486.483 414.642L32.0548 417.783C15.6323 302.984 -12.2299 63.3541 7.70083 23.2213C27.6316 -16.9116 56.1603 5.45703 67.9333 21.6579C130.66 4.64518 127.283 32.9381 117.754 49.2111C199.931 40.1551 199.339 83.3116 188.771 106.022C235.796 85.9551 251.4 112.249 253.324 127.904C345.519 113.588 327.255 154.351 306.599 176.522C375.175 170.511 387.578 208.555 385.207 228.328C466.48 213.911 463.433 250.656 451.751 270.831C536.778 298.625 490.636 338.412 456.936 354.832Z" fill="#CFCDCD" fill-opacity="0.87"/>
</svg>
