<svg width="333" height="335" viewBox="0 0 333 335" fill="none" xmlns="http://www.w3.org/2000/svg">
<path d="M166.45 332.9C258.378 332.9 332.9 258.378 332.9 166.45C332.9 74.5222 258.378 0 166.45 0C74.5222 0 0 74.5222 0 166.45C0 258.378 74.5222 332.9 166.45 332.9Z" fill="#F2F2F2"/>
<path d="M48.4003 73.1998C45.7203 79.6298 48.4003 72.6698 41.9703 87.1198C35.5403 101.57 21.6303 83.9098 33.9703 111.22C46.3103 138.53 56.4603 125.67 44.1402 146.55C31.8202 167.43 13.6303 154.55 25.9403 175.47C38.2503 196.39 40.4002 202.77 45.7502 210.81C51.1003 218.85 49.5002 221.51 62.8802 225.26C76.2603 229.01 87.5103 233.83 95.0103 238.65C102.51 243.47 106.79 260.6 132.49 244C158.19 227.4 144.8 222.58 163.01 225.26C181.22 227.94 191.92 242.4 197.28 218.84C202.64 195.28 190.85 186.18 194.06 176.54C197.27 166.9 202.61 149.34 211.7 162.14C220.79 174.94 187.61 198.49 224.55 192.6C261.49 186.71 256.68 182.02 254 162.14C251.32 142.26 249.61 151.34 255.8 133.7C261.99 116.06 274.2 105.33 255.8 98.3698C237.4 91.4098 252.93 91.3698 230.44 80.1598C207.95 68.9498 210.1 70.5198 204.74 68.9198C199.38 67.3198 198.32 75.3398 186.54 53.3898C174.76 31.4398 182.79 22.3898 157.09 31.4398C131.39 40.4898 128.71 44.3398 114.26 37.3398C99.8103 30.3398 102.48 18.5898 81.6103 36.7898C60.7402 54.9898 55.8903 54.9998 52.1503 64.0998L48.4003 73.1998Z" fill="#E3E3E5"/>
<path d="M216.61 59.7898C217.739 62.2457 219.712 64.215 222.17 65.3398C226.17 67.2098 230.92 68.8598 234.58 67.8798C237.64 67.0498 243.24 65.4598 247.87 64.1398C250.134 63.5213 252.206 62.3436 253.896 60.715C255.585 59.0865 256.839 57.0593 257.54 54.8198V51.6098C257.531 50.9971 257.399 50.3925 257.154 49.8311C256.908 49.2697 256.553 48.7628 256.11 48.3398C254.66 46.9298 252.19 44.9798 249.38 44.6598C247.16 44.3998 243.13 44.2098 239.62 44.0798C235.246 43.9375 230.986 42.6552 227.26 40.3598C225.797 40.1051 224.298 40.1492 222.853 40.4895C221.407 40.8298 220.046 41.4592 218.85 42.3398L212.53 46.1498C211.831 46.538 211.304 47.1763 211.055 47.9367C210.807 48.6971 210.855 49.5234 211.19 50.2498C212.868 51.2051 214.258 52.5956 215.212 54.2746C216.166 55.9537 216.649 57.8591 216.61 59.7898Z" fill="#E9E9E9"/>
<path d="M108.394 76.1224C108.394 76.1224 108.394 89.6301 101.223 91.7082C94.0518 93.7863 64.7048 96.4359 62.1071 105.216C59.5094 113.996 58.1955 122.111 51.0744 133.592C43.9533 145.074 27.5949 145.084 34.1142 124.812C40.6335 104.54 24.3352 103.19 44.5451 99.8128C64.755 96.4359 66.0689 102.514 77.1517 82.2528C88.2346 61.9914 74.4838 55.9025 92.096 59.2379C109.708 62.5732 92.096 70.7194 109.698 62.6148C127.3 54.5102 135.775 35.1839 134.482 58.3547C133.188 81.5255 108.394 76.1224 108.394 76.1224Z" fill="#D3D3D4"/>
<path d="M65.9705 198.53C63.8205 201.24 65.9705 218.66 57.2405 205.31C48.5105 191.96 52.9505 189.14 46.7805 185.56C40.6105 181.98 37.5405 171.13 32.8605 182.74C28.1805 194.35 25.1905 197.22 32.1205 206.8C39.0505 216.38 43.0405 219.18 48.4205 229.91C53.8005 240.64 48.2105 239.91 55.6505 247.61C63.0905 255.31 64.4105 249.61 68.2805 259.98C72.1505 270.35 64.2805 277.31 74.2805 277.6C84.2805 277.89 85.6605 270.94 89.0305 278.52C92.4005 286.1 80.8705 308.52 107.03 296.37C133.19 284.22 128.63 279.75 138.91 283.49C149.19 287.23 155.46 296.34 156.14 286.89C156.82 277.44 152.53 267.97 158.94 266.27C165.35 264.57 171.42 272.54 172.21 282.03C173 291.52 175.75 299.5 183.72 291.39C191.69 283.28 193.94 276.18 197.44 271.19C200.94 266.2 195.35 269.19 197.32 257.19C199.29 245.19 195.7 249.59 202.92 242.49C210.14 235.39 228 235.77 216.16 226.49C204.32 217.21 198.9 224.56 194.49 217.74C190.08 210.92 203.89 199.74 183.49 206.54C163.09 213.34 165.84 215.76 159.29 211.66C152.74 207.56 155.2 216.6 148.79 203.35C142.38 190.1 138.2 197.85 142.04 188.13C145.88 178.41 147.16 177.34 150.72 174.34C154.28 171.34 161.63 168.34 157.22 166.49C152.81 164.64 149.98 153.49 136.63 167.18C123.28 180.87 126.82 186.11 119.98 182.06C113.14 178.01 118.74 186.65 108.45 176.2C98.1605 165.75 99.3505 172.54 97.6605 162.92C95.9705 153.3 96.9005 145.25 83.9205 152.78C70.9405 160.31 68.4305 159.29 69.9205 169.53C71.4105 179.77 68.3705 170.67 68.1705 181.21C68.157 187.052 67.418 192.87 65.9705 198.53Z" fill="#939598"/>
<path fill-rule="evenodd" clip-rule="evenodd" d="M64.8027 203.585C65.0775 201.399 65.3378 199.327 65.9705 198.53C67.418 192.87 68.157 187.052 68.1705 181.21C68.2691 176.014 69.0577 175.591 69.6537 175.271C70.2668 174.942 70.676 174.722 69.9205 169.53C68.6944 161.103 70.1769 160.302 77.9734 156.086C79.6514 155.179 81.6217 154.114 83.9205 152.78C95.224 146.223 95.9787 151.48 97.1012 159.301L97.1012 159.301C97.2677 160.461 97.4422 161.678 97.6605 162.92C98.6511 168.559 98.6522 168.559 100.556 169.699C101.9 170.503 104.192 171.875 108.45 176.2C114.471 182.314 115.052 181.893 115.868 181.303C116.446 180.884 117.142 180.38 119.98 182.06C123.945 184.408 124.422 183.634 126.723 179.902C128.392 177.196 131.019 172.934 136.63 167.18C146.839 156.711 150.896 160.768 154.212 164.084C155.233 165.104 156.183 166.055 157.22 166.49C160.418 167.831 157.433 169.777 154.193 171.89C152.964 172.69 151.699 173.515 150.72 174.34L150.706 174.352C147.157 177.343 145.875 178.423 142.04 188.13C139.973 193.362 140.23 193.532 141.908 194.641C143.347 195.592 145.831 197.233 148.79 203.35C152.699 211.428 153.31 211.221 154.675 210.758C155.55 210.461 156.734 210.06 159.29 211.66C163.596 214.355 163.883 214.233 169.368 211.902C172.228 210.686 176.5 208.87 183.49 206.54C196.395 202.238 195.61 205.132 194.408 209.565C193.709 212.14 192.87 215.234 194.49 217.74C196.543 220.914 198.814 221.019 201.849 221.159C205.335 221.321 209.83 221.529 216.16 226.49C223.834 232.504 219.032 234.461 212.737 237.027C209.319 238.419 205.461 239.992 202.92 242.49C202.323 243.078 201.799 243.587 201.34 244.033L201.34 244.033C199.292 246.023 198.535 246.759 198.243 247.648C198.072 248.169 198.061 248.742 198.043 249.652C198.015 251.042 197.973 253.218 197.32 257.19C196.26 263.649 197.39 265.765 198.114 267.121C198.735 268.283 199.057 268.886 197.44 271.19C196.328 272.776 195.342 274.575 194.259 276.551C191.933 280.795 189.158 285.857 183.72 291.39C181.338 293.814 179.422 294.801 177.886 294.739C174.083 294.888 172.5 288.849 171.94 282.03C171.64 277.621 170.047 273.398 167.36 269.89L167.554 269.798C165.155 266.933 162.089 265.435 158.94 266.27C154.673 267.402 155.148 271.977 155.742 277.697C156.04 280.57 156.368 283.731 156.14 286.89C155.916 290.016 155.079 291.111 153.688 291.041C152.306 291.158 150.298 289.897 147.731 288.284L147.73 288.284C145.208 286.7 142.146 284.777 138.61 283.49C137.259 282.975 135.863 282.59 134.44 282.34L134.647 282.28C131.979 281.912 130.477 282.916 126.977 285.254C123.445 287.613 117.88 291.331 107.03 296.37C101.45 298.962 97.585 299.98 94.9243 299.906C89.381 299.915 88.8263 295.378 89.0496 290.25C89.1424 290.244 89.2351 290.237 89.3279 290.23C89.37 289.288 89.4381 288.325 89.5059 287.369C89.7461 283.978 89.9812 280.658 89.0305 278.52C87.0569 274.081 85.7658 274.625 83.0261 275.78C81.0876 276.597 78.4241 277.72 74.2805 277.6C68.4238 277.43 68.6967 274.972 69.1507 270.882C69.472 267.988 69.884 264.277 68.2805 259.98C66.0298 253.949 64.6415 253.353 62.4103 252.396C60.8051 251.708 58.7635 250.832 55.6505 247.61C51.5461 243.362 51.4072 241.68 51.2044 239.224C51.0395 237.228 50.8325 234.721 48.4205 229.91C44.856 222.801 41.9016 219.173 38.2981 214.747C36.4628 212.493 34.459 210.033 32.1205 206.8C26.1461 198.541 27.5445 195.269 31.0424 187.085L31.0426 187.084L31.0431 187.083C31.6024 185.775 32.2154 184.34 32.8605 182.74C36.1059 174.689 38.5771 177.439 41.8448 181.075L41.8449 181.075L41.845 181.075C43.2894 182.682 44.8893 184.463 46.7805 185.56C49.8723 187.354 50.2999 188.957 51.0555 191.79C51.8077 194.61 52.8851 198.65 57.2405 205.31C63.4016 214.732 64.1437 208.828 64.8027 203.585Z" fill="#D3D3D5"/>
<path fill-rule="evenodd" clip-rule="evenodd" d="M188.7 99.5499C188.3 100.154 186.993 99.6341 185.238 98.9356C182.609 97.8891 178.975 96.4425 175.88 97.7799C174.047 98.5579 173.299 99.9259 172.457 101.464C171.536 103.149 170.502 105.038 167.81 106.58C166.279 107.453 165.347 107.578 164.388 107.707C163.468 107.83 162.523 107.957 161 108.75C156.76 110.96 152.73 115.91 152.74 120.98C152.74 122.737 153.228 123.731 153.786 124.869C154.382 126.081 155.057 127.459 155.31 130.1C155.543 132.453 155.248 133.841 154.982 135.095C154.779 136.052 154.592 136.931 154.67 138.1C155.05 144 161.54 151 168.16 151.69C174.29 152.33 180.52 147.35 192.97 137.39C193.381 137.062 193.776 136.744 194.159 136.435C197.876 133.44 200.378 131.424 203.76 131.75C209.67 132.35 213.28 139.66 213.46 140.03C215.401 144.088 214.983 147.392 214.622 150.245C214.287 152.89 214.002 155.148 215.69 157.26C219.2 161.65 228.57 161.91 234.83 158.96C237.685 157.614 239.586 155.71 241.189 154.102C243.102 152.184 244.594 150.689 246.78 151.07C249.85 151.61 251.89 155.39 252.88 157.24C253.992 159.319 254.223 160.764 254.438 162.105C254.609 163.177 254.77 164.182 255.36 165.39C257.617 169.983 263.173 171.475 268.675 172.953L268.7 172.96C275.93 174.9 284.34 177.15 289 172.41C290.448 170.858 291.421 168.924 291.803 166.836C292.186 164.748 291.963 162.595 291.16 160.63C290.878 160.023 290.538 159.484 290.15 158.998C288.505 156.807 285.9 155.685 283.101 154.48L283.01 154.44C281.101 153.663 279.107 153.116 277.07 152.81C277.05 152.86 277.03 152.91 277.01 152.96C275.229 152.629 272.88 152.243 269.66 151.75C268.482 151.569 267.449 151.415 266.54 151.278C261.008 150.45 260.071 150.309 258.92 149.21C255.2 145.64 256.44 138.89 256.92 136.44C257.52 133.18 258.31 128.9 262 126.93C264.77 125.45 268.71 125.51 271 127.48C272.038 128.366 272.223 129.197 272.476 130.336C272.692 131.306 272.958 132.499 273.84 134.14C275.529 137.278 278.001 139.322 281.124 141.716L281.11 141.76L281.508 142.01C281.664 142.129 281.821 142.249 281.98 142.37C283.297 143.375 284.141 143.91 284.767 144.306C285.28 144.632 285.647 144.864 286.008 145.187C286.188 145.367 286.373 145.577 286.58 145.84C287.824 147.41 288.107 148.661 288.395 149.932C288.646 151.041 288.9 152.165 289.8 153.53C290.275 154.252 290.875 154.96 291.556 155.604C293.655 157.679 296.603 159.148 299 158.37C301.47 157.57 302.47 154.62 303.31 152.14C304.694 147.636 304.736 142.827 303.43 138.3C303.15 137.25 302.14 134.3 300.11 128.38C299.06 125.38 298.44 123.56 299.22 122.81C299.875 122.179 301.114 122.656 302.455 123.172C303.921 123.735 305.509 124.346 306.59 123.61C308.66 122.2 307.26 116.78 307.09 116.17C306.13 112.652 304.548 111.015 302.022 108.402L302.021 108.402C300.705 107.041 299.134 105.414 297.26 103.12C295.213 100.617 293.838 98.5776 292.675 96.854C290.548 93.7021 289.134 91.6058 285.63 89.6599C283.63 88.5499 281.88 87.6599 279.74 87.9499C277.737 88.267 276.632 89.5034 273.996 92.4527L273.995 92.4534C272.974 93.5963 271.723 94.9964 270.1 96.6999C265.79 101.23 264.79 101.7 264.1 101.9C259.659 103.506 254.333 101.554 253.842 101.374L253.83 101.37C252.777 100.964 252.007 100.542 251.372 100.194C250.299 99.6066 249.611 99.2299 248.6 99.4999C247.648 99.7541 247.196 100.407 246.476 101.447C245.977 102.167 245.35 103.072 244.34 104.16L244.332 104.169C242.117 106.603 240.928 107.91 239.34 108.02C237.08 108.18 234.77 105.51 230.17 100.18C229.16 98.8631 227.941 97.7213 226.56 96.7999C225.12 95.8899 222.7 94.3699 220.96 95.1599C219.96 95.5999 219.4 96.6699 217.82 105.76C217.709 106.403 217.616 106.95 217.537 107.416C217.134 109.791 217.083 110.089 216.69 110.54C213.85 113.8 204.69 111.85 198.2 107.42L188.7 99.5499Z" fill="#D3D3D5"/>
<path opacity="0.56" d="M292.05 58.3398C299.56 170.49 219.85 271.5 106.72 288.49C89.1428 291.138 71.3081 291.635 53.6104 289.97C84.8985 318.846 126.062 334.635 168.635 334.09C211.208 333.545 251.954 316.708 282.493 287.041C313.032 257.374 331.042 217.133 332.82 174.594C334.598 132.055 320.008 90.4513 292.05 58.3398Z" fill="#A7A9AC" fill-opacity="0.44"/>
</svg>
