<svg width="753" height="788" viewBox="0 0 753 788" fill="none" xmlns="http://www.w3.org/2000/svg">
<rect width="753" height="788" fill="white"/>
<path d="M0 0H753V788H0V0Z" fill="#071D37"/>
<path d="M227.501 174.432C236.852 174.432 244.433 166.851 244.433 157.5C244.433 148.149 236.852 140.568 227.501 140.568C218.149 140.568 210.568 148.149 210.568 157.5C210.568 166.851 218.149 174.432 227.501 174.432Z" fill="#FFCC4D"/>
<path d="M215.196 165.022C213.637 165.129 212.522 164.535 211.708 163.571C212.047 164.452 212.479 165.282 212.956 166.085C214.177 166.542 215.475 166.734 216.978 165.654C216.245 165.295 215.584 164.997 215.196 165.022ZM235.553 142.629C235.625 143.149 235.257 143.421 234.366 143.204C232.854 142.837 231.527 144.433 230.765 145.768C229.266 148.391 223.08 151.347 223.075 149.072C223.074 147.997 217.609 150.407 216.911 149.327C216.251 148.307 214.278 148.7 213.87 147.478C212.021 149.986 210.903 152.957 210.64 156.062C211.237 157.199 212.008 158.092 212.78 158.479C213.825 159.001 218.68 160.898 219.389 159.687C220.572 157.666 227.668 159.096 227.499 158.034C227.174 155.999 231.342 157.669 232.84 155.047C233.603 153.713 235.267 152.688 236.78 153.056C238.547 153.485 240.728 150.454 240.563 146.729C239.172 145.053 237.471 143.661 235.553 142.629ZM240.59 168.24C240.055 168.503 239.528 168.704 239.046 168.756C235.487 169.141 234.717 171.931 232.33 171.452C231.099 171.205 229.421 173.375 227.501 173.506C226.233 173.599 224.972 173.762 223.723 173.994C224.962 174.281 226.229 174.428 227.501 174.432C232.775 174.432 237.483 172.021 240.59 168.24Z" fill="#F4900C"/>
<path d="M235.773 142.734C237.275 143.579 238.638 144.649 239.817 145.905C243.761 145.657 246.166 146.585 245.965 148.719C245.861 149.835 245.039 151.161 243.699 152.574C240.362 156.091 233.71 160.168 226.172 163.028C220.933 165.015 216.263 166.036 212.926 166.09C209.529 166.145 207.514 165.198 207.698 163.235C207.818 161.945 208.888 160.376 210.63 158.711C210.6 158.308 210.568 157.909 210.568 157.5C210.568 156.158 210.741 154.858 211.037 153.604C204.225 158.327 199.792 163.528 199.792 167.584C199.792 173.106 207.965 174.801 219.227 172.266C222.034 171.626 224.798 170.806 227.5 169.814C233.675 167.567 239.358 164.589 243.965 161.395C250.775 156.672 255.209 151.471 255.209 147.414C255.209 141.895 247.035 140.198 235.773 142.734Z" fill="#E85E00"/>
<path d="M209.063 157.581C207.906 158.698 206.905 159.967 206.087 161.352C205.311 162.701 204.65 164.219 204.75 165.581C204.806 166.936 205.83 167.744 207.217 168.118C208.601 168.477 210.138 168.572 211.704 168.48C214.836 168.334 217.94 167.822 220.952 166.952C223.999 166.153 226.955 165.013 229.843 163.729C235.639 161.133 241.04 157.731 245.885 153.624C246.468 153.097 247.106 152.596 247.665 152.063C248.192 151.529 248.689 150.934 249.106 150.326C249.932 149.11 250.414 147.686 249.636 146.602C248.86 145.5 247.269 144.9 245.752 144.589C244.199 144.293 242.57 144.225 240.955 144.414C242.525 143.994 244.18 143.788 245.844 143.913C247.475 144.059 249.283 144.388 250.607 145.846C251.256 146.57 251.555 147.659 251.436 148.611C251.346 149.578 250.972 150.432 250.545 151.2C250.105 151.968 249.611 152.664 249.049 153.334C248.491 153.974 247.926 154.564 247.351 155.175C242.709 159.916 237.155 163.748 231.105 166.511C225.063 169.234 218.479 171.12 211.692 170.871C210.02 170.808 208.276 170.66 206.568 170.003C205.722 169.672 204.855 169.185 204.193 168.395C203.528 167.616 203.194 166.608 203.26 165.586C203.415 163.665 204.375 162.179 205.396 160.874C206.434 159.587 207.672 158.475 209.063 157.581Z" fill="#F4900C"/>
<circle cx="385" cy="147" r="2" fill="white"/>
<circle cx="345" cy="326" r="2" fill="white"/>
<circle cx="477" cy="49" r="2" fill="white"/>
<circle cx="230" cy="256" r="2" fill="white"/>
<circle cx="93" cy="571" r="2" fill="white"/>
<circle cx="121" cy="71" r="2" fill="white"/>
<circle cx="366" cy="560" r="2" fill="white"/>
<circle cx="690" cy="727" r="2" fill="white"/>
<circle cx="116" cy="709" r="2" fill="white"/>
<circle cx="440" cy="725" r="2" fill="white"/>
<circle cx="534" cy="184" r="2" fill="white"/>
<circle cx="633" cy="322" r="2" fill="white"/>
<circle cx="664" cy="129" r="2" fill="white"/>
<circle cx="548" cy="471" r="2" fill="white"/>
<circle cx="427" cy="421" r="2" fill="white"/>
<circle cx="673" cy="600" r="2" fill="white"/>
<circle cx="478" cy="214" r="3" fill="white"/>
<circle cx="520" cy="605" r="3" fill="white"/>
<circle cx="238" cy="636" r="3" fill="white"/>
<circle cx="161.5" cy="415.5" r="3.5" fill="white"/>
<circle cx="94.5" cy="257.5" r="3.5" fill="white"/>
</svg>
