<svg width="322" height="299" viewBox="0 0 322 299" fill="none" xmlns="http://www.w3.org/2000/svg">
<path d="M83.9833 249.937C96.4347 228.727 96.6845 223.883 112.761 233.32C128.838 242.756 124.563 244.882 112.278 266.545C102.939 282.452 83.8115 282.631 83.8115 282.631C83.8115 282.631 74.6447 265.844 83.9833 249.937Z" fill="#FF9D27"/>
<path d="M127.047 262.738C127.715 242.454 129.271 239.803 116.14 235.66C103.008 231.517 104.501 235.602 104.311 255.809C103.727 270.795 115.053 282.433 115.053 282.433C115.053 282.433 127.107 278.101 127.047 262.738" fill="#FF9D27"/>
<path d="M109.607 246.796C110.087 235.67 109.257 233.401 116.144 235.661C123.509 237.845 122.575 239.436 122.096 250.562C122.053 258.735 115.559 261.696 115.559 261.696C115.559 261.696 109.73 255.424 109.607 246.796Z" fill="#FDF516"/>
<path d="M108.591 231.584C98.5727 222.139 97.0163 224.79 79.6292 235.26C66.8275 243.074 68.2775 255.332 68.2775 255.332C68.2775 255.332 83.9608 259.547 96.7625 251.733C114.15 241.263 118.444 240.576 108.591 231.584Z" fill="#FF9D27"/>
<path d="M102.057 242.721C111.539 236.879 113.925 236.497 108.594 231.586C103.097 226.221 102.163 227.811 92.6812 233.653C85.5645 237.674 86.1442 244.788 86.1442 244.788C86.1442 244.788 94.9402 246.742 102.057 242.721Z" fill="#FDF516"/>
<path d="M96.4769 242.653C103.325 230.988 103.284 228.112 112.287 233.397C121.29 238.681 118.759 240.047 111.91 251.712C106.618 260.726 95.9343 260.515 95.9343 260.515C95.9343 260.515 91.6622 251.591 96.4769 242.653" fill="#FDF516"/>
<path d="M102.5 195.57C55.6628 153.106 13.6471 180.489 13.6471 180.489C13.6471 180.489 59.4061 102.545 123.069 139.914L102.5 195.57Z" fill="#3BAACF"/>
<path d="M112.631 156.957L122.592 139.99C59.4061 102.545 13.6471 180.489 13.6471 180.489C13.6471 180.489 59.9408 128.882 112.631 156.957" fill="#428BC1"/>
<path d="M150.73 223.88C210.641 244.074 207.209 294.104 207.209 294.104C207.209 294.104 252.968 216.161 189.305 178.792L150.73 223.88Z" fill="#3BAACF"/>
<path d="M179.511 196.212L189.472 179.245C253.135 216.614 207.376 294.557 207.376 294.557C207.376 294.557 229.71 228.53 179.511 196.212" fill="#428BC1"/>
<path d="M235.304 140.203C198.718 201.786 147.614 240.232 118.676 223.247C89.7381 206.261 98.4005 142.903 134.344 80.9422C176.679 8.83082 249.727 0.0196716 249.727 0.0196716C249.727 0.0196716 277.162 68.1683 235.304 140.203" fill="#C5D0D8"/>
<path d="M215.064 128.049C179.114 189.216 136.566 232.332 119.29 222.2C102.015 212.067 118.971 153.941 154.921 92.774C197.07 21.0609 249.765 0.205523 249.765 0.205523C249.765 0.205523 257.213 56.3362 215.064 128.049Z" fill="#DAE3EA"/>
<path d="M145.936 234.256C144.38 236.907 140.562 237.518 137.347 235.631L98.7632 212.983C95.5479 211.096 94.0549 207.011 95.6113 204.36L101.214 194.816L151.373 224.258L145.936 234.256Z" fill="#C94747"/>
<path d="M134.837 227.385C133.28 230.036 130.749 231.402 128.82 230.27L106.956 217.436C105.026 216.304 104.985 213.428 106.542 210.777L112.145 201.232L140.44 217.841L134.837 227.385" fill="#F15744"/>
<path d="M130.871 240.029C129.938 241.62 126.597 242.155 124.668 241.022L99.5888 226.302C97.6596 225.169 97.1415 222.37 98.0753 220.779L101.811 214.416L134.607 233.667L130.871 240.029" fill="#3E4347"/>
<path d="M125.727 237.008C124.793 238.599 122.096 239.511 120.81 238.756L103.448 228.565C102.161 227.81 101.809 225.464 103.22 223.797L106.956 217.435L129.463 230.646L125.727 237.008Z" fill="#62727A"/>
<path d="M249.727 0.0180414C249.727 0.0180414 223.628 3.23518 193.439 21.519L258.389 59.6424C259.64 24.3729 249.727 0.0180414 249.727 0.0180414Z" fill="#C94747"/>
<path d="M249.726 0.0172101C249.726 0.0172101 230.701 7.38639 205.822 29.1437L245.692 52.5462C252.565 20.22 249.726 0.0172101 249.726 0.0172101Z" fill="#F15744"/>
</svg>
